<?xml version="1.0" encoding="UTF-8"?>
<svg id="Layer_1" xmlns="http://www.w3.org/2000/svg" viewBox="0 0 659.65 506.69">
  <defs>
    <style>
      .cls-1 {
        fill: #695ef7;
      }
    </style>
  </defs>
  <g>
    <path class="cls-1" d="M444.5,128.33h0c-9.23-16.58-26.95-27.81-47.28-27.81-29.87,0-54.09,24.22-54.09,54.09,0-39.77-21.56-74.52-53.63-93.17-15.78-9.19-34.09-14.48-53.63-14.55v107.71c0,19.01,4.92,36.86,13.58,52.37,9.42,16.94,23.3,31.07,40.05,40.8,15.9,9.26,34.38,14.56,54.09,14.56,50.2,0,92.4-34.35,104.34-80.83,2.1-8.16,3.26-16.7,3.36-25.5,0-.46.02-.93.02-1.39s0-.94-.02-1.39c-.23-9.02-2.66-17.49-6.78-24.89ZM410.96,154.62c-7.59,0-13.75-6.16-13.75-13.75s6.16-13.75,13.75-13.75,13.75,6.16,13.75,13.75-6.16,13.75-13.75,13.75Z"/>
    <path class="cls-1" d="M235.85,208.71v-54.09h-54.09c0,29.87,24.22,54.09,54.09,54.09Z"/>
    <path class="cls-1" d="M451.3,127.58v27.04h26.59c0-14.78-11.86-26.8-26.59-27.04Z"/>
  </g>
  <g>
    <g>
      <path class="cls-1" d="M382.67,362.49c4.26,7.79,12.53,13.08,22.01,13.08h88.89c13.82-.01,25.07-11.26,25.07-25.08s-11.25-25.08-25.08-25.08-25.08,11.25-25.08,25.08h6.11c0-10.46,8.51-18.96,18.96-18.96s18.96,8.51,18.96,18.96-8.51,18.96-18.96,18.96h0s-37.17,0-37.17,0h-51.7c-10.42,0-18.91-8.46-18.96-18.87,0-.03,0-.06,0-.1,0-13.83-11.25-25.08-25.08-25.08s-25.08,11.25-25.08,25.08c0,.02,0,.03,0,.05-.03,10.43-8.52,18.91-18.96,18.91-3.9,0-7.65-1.18-10.84-3.43-5.08-3.51-8.12-9.32-8.12-15.54v-42.69h-6.11v42.69c0,8.23,4.02,15.91,10.74,20.55,4.21,2.96,9.17,4.52,14.34,4.52,9.49,0,17.76-5.3,22.02-13.09,4.26,7.79,12.53,13.08,22.02,13.08s17.75-5.29,22.01-13.08ZM360.66,369.45c-10.44,0-18.93-8.48-18.96-18.91,0-.02,0-.03,0-.05h0c0-10.46,8.51-18.96,18.96-18.96s18.96,8.51,18.96,18.96c0,0,0,0,0,0h0s0,.06,0,.09c-.05,10.41-8.53,18.86-18.96,18.86Z"/>
      <path class="cls-1" d="M166.09,375.73c9.5,0,17.78-5.31,22.04-13.11,4.26,7.79,12.54,13.09,22.01,13.09s17.81-5.33,22.05-13.15c4.27,7.75,12.52,13.01,21.97,13.01,13.83,0,25.08-11.25,25.08-25.07s-11.25-25.08-25.08-25.08-25.08,11.25-25.08,25.08c0,.06,0,.13,0,.19-.03,10.43-8.52,18.92-18.96,18.92s-18.94-8.5-18.96-19.02h-.01c-.04-13.79-11.27-25-25.07-25s-25.08,11.25-25.08,25.07,11.25,25.08,25.08,25.08ZM254.16,331.53c10.45,0,18.96,8.51,18.96,18.96s-8.51,18.96-18.96,18.96-18.85-8.4-18.95-18.77c0-.02,0-.03,0-.05v-.15h-.01c0-10.45,8.51-18.96,18.96-18.96ZM166.09,331.69c10.46,0,18.96,8.51,18.96,18.96s-8.51,18.96-18.96,18.96-18.96-8.51-18.96-18.96,8.51-18.96,18.96-18.96Z"/>
    </g>
    <g>
      <path class="cls-1" d="M275.33,409.64c-9.44,0-17.73,5.32-22,13.15-4.26-7.81-12.56-13.14-22.02-13.14-13.83,0-25.08,11.25-25.08,25.07v22.09h6.11v-22.09c0-10.45,8.51-18.95,18.97-18.95s18.83,8.39,18.95,18.7v.02s0,.02,0,.03v22.28h6.11v-22.09h.02c0-.1,0-.2-.01-.31.16-10.29,8.65-18.66,18.95-18.66s18.97,8.5,18.97,18.95v22.1h6.11v-22.1c0-13.82-11.25-25.07-25.08-25.07Z"/>
      <path class="cls-1" d="M435.51,409.64c-9.49,0-17.76,5.3-22.01,13.1-4.26-7.79-12.53-13.09-22.01-13.09-13.83,0-25.08,11.25-25.08,25.08v22.07h6.11v-22.07c0-10.46,8.51-18.97,18.97-18.97s18.94,8.5,18.95,18.97v22.07h6.11v-22.1c0-10.45,8.5-18.95,18.95-18.95s18.97,8.5,18.97,18.95v22.1h6.11v-22.1c0-13.82-11.25-25.07-25.08-25.07Z"/>
      <path class="cls-1" d="M333.41,409.64c-13.83,0-25.08,11.25-25.08,25.07s11.25,25.08,25.08,25.08c7.58,0,14.37-3.39,18.97-8.73v5.75h6.11v-22.11h-.01c0-13.82-11.25-25.07-25.07-25.07ZM333.41,453.67c-10.46,0-18.96-8.51-18.96-18.96s8.51-18.96,18.96-18.96,18.96,8.51,18.96,18.96-8.51,18.96-18.96,18.96Z"/>
      <path class="cls-1" d="M493.55,409.64c-13.83,0-25.08,11.25-25.08,25.07s11.25,25.08,25.08,25.08c7.58,0,14.37-3.39,18.97-8.73v5.75h6.11v-22.11h-.01c0-13.82-11.25-25.07-25.07-25.07ZM493.55,453.67c-10.46,0-18.96-8.51-18.96-18.96s8.51-18.96,18.96-18.96,18.96,8.51,18.96,18.96-8.51,18.96-18.96,18.96Z"/>
      <path class="cls-1" d="M173.24,409.64c-7.57,0-14.36,3.39-18.96,8.71v-23.64h-6.11v62.11h6.11v-22.11c0-10.45,8.51-18.96,18.96-18.96s18.96,8.5,18.96,18.95h-.01v22.11h6.11v-22.1h.01c0-13.83-11.25-25.07-25.08-25.07Z"/>
    </g>
  </g>
</svg>